<svg width="98" height="98" viewBox="0 0 98 98" fill="none" xmlns="http://www.w3.org/2000/svg">
<g filter="url(#filter0_d_1_294)">
<path d="M86.5 0H11.5C9.51331 0.00789946 7.61024 0.800612 6.20543 2.20543C4.80061 3.61024 4.0079 5.51331 4 7.5V82.5C4.0079 84.4867 4.80061 86.3898 6.20543 87.7946C7.61024 89.1994 9.51331 89.9921 11.5 90H86.5C88.4867 89.9921 90.3898 89.1994 91.7946 87.7946C93.1994 86.3898 93.9921 84.4867 94 82.5V7.5C93.9921 5.51331 93.1994 3.61024 91.7946 2.20543C90.3898 0.800612 88.4867 0.00789946 86.5 0V0ZM38 7.5L49 18.5L60 7.5L65.3 12.8L54.3 23.8L64.91 34.4L59.61 39.7L32.71 12.8L38 7.5ZM11.5 56L22.5 45L11.5 34L16.8 28.69L27.8 39.69L38.4 29.08L43.7 34.39L16.8 61.28L11.5 56ZM60 82.5L49 71.5L38 82.5L32.7 77.2L43.7 66.2L33.09 55.6L38.39 50.3L65.29 77.2L60 82.5ZM86.5 56L81.2 61.3L70.2 50.3L59.6 60.91L54.3 55.6L81.2 28.71L86.5 34.01L75.5 45.01L86.5 56Z" fill="#888888"/>
</g>
<defs>
<filter id="filter0_d_1_294" x="0" y="0" width="98" height="98" filterUnits="userSpaceOnUse" color-interpolation-filters="sRGB">
<feFlood flood-opacity="0" result="BackgroundImageFix"/>
<feColorMatrix in="SourceAlpha" type="matrix" values="0 0 0 0 0 0 0 0 0 0 0 0 0 0 0 0 0 0 127 0" result="hardAlpha"/>
<feOffset dy="4"/>
<feGaussianBlur stdDeviation="2"/>
<feComposite in2="hardAlpha" operator="out"/>
<feColorMatrix type="matrix" values="0 0 0 0 0 0 0 0 0 0 0 0 0 0 0 0 0 0 0.25 0"/>
<feBlend mode="normal" in2="BackgroundImageFix" result="effect1_dropShadow_1_294"/>
<feBlend mode="normal" in="SourceGraphic" in2="effect1_dropShadow_1_294" result="shape"/>
</filter>
</defs>
</svg>
