<svg width="90" height="90" viewBox="0 0 90 90" fill="none" xmlns="http://www.w3.org/2000/svg">
<path d="M82.5 0H7.5C5.51331 0.00789946 3.61023 0.800615 2.20541 2.20543C0.8006 3.61024 0.00789946 5.51331 0 7.5V82.5C0.00789946 84.4867 0.8006 86.3898 2.20541 87.7946C3.61023 89.1994 5.51331 89.9921 7.5 90H82.5C84.4867 89.9921 86.3897 89.1994 87.7946 87.7946C89.1994 86.3898 89.9921 84.4867 90 82.5V7.5C89.9921 5.51331 89.1994 3.61024 87.7946 2.20543C86.3897 0.800615 84.4867 0.00789946 82.5 0ZM78.75 63.75L45 82.5L26.25 72.08V35.08L45 24.66L63.75 35.08V54.92L45 65.34L41.25 63.26V43.9L45 41.82L48.75 43.9V54.68L56.25 50.51V39.51L45 33.24L33.75 39.49V67.67L45 73.92L71.25 59.34V30.66L45 16.08L18.75 30.66V67.92L11.25 63.75V26.25L45 7.5L78.75 26.25V63.75Z" fill="#888888"/>
</svg>
