<svg width="91" height="91" viewBox="0 0 91 91" fill="none" xmlns="http://www.w3.org/2000/svg">
<path fill-rule="evenodd" clip-rule="evenodd" d="M38.5569 38.1111C34.4143 36.2047 29.8587 35.3708 25.3093 35.6863C20.76 36.0017 16.3631 37.4563 12.5232 39.9161C8.68329 42.376 5.52377 45.7622 3.33537 49.763C1.14697 53.7639 0 58.2509 0 62.8111C0 67.3714 1.14697 71.8584 3.33537 75.8592C5.52377 79.8601 8.68329 83.2462 12.5232 85.7061C16.3631 88.166 20.76 89.6206 25.3093 89.936C29.8587 90.2514 34.4143 89.4176 38.5569 87.5111C35.2708 84.2915 32.6602 80.4484 30.878 76.2072C29.0958 71.9659 28.1778 67.4116 28.1778 62.8111C28.1778 58.2106 29.0958 53.6564 30.878 49.4151C32.6602 45.1738 35.2708 41.3308 38.5569 38.1111ZM62.8669 61.8711C58.2669 61.8734 53.7126 60.9574 49.4713 59.1767C45.2299 57.396 41.3866 54.7865 38.1669 51.5011C36.2605 55.6438 35.4266 60.1994 35.742 64.7487C36.0574 69.298 37.512 73.6949 39.9719 77.5348C42.4318 81.3747 45.8179 84.5342 49.8188 86.7226C53.8196 88.911 58.3066 90.058 62.8669 90.058C67.4271 90.058 71.9141 88.911 75.915 86.7226C79.9158 84.5342 83.302 81.3747 85.7619 77.5348C88.2218 73.6949 89.6763 69.298 89.9918 64.7487C90.3072 60.1994 89.4733 55.6438 87.5669 51.5011C84.3478 54.7874 80.5047 57.3975 76.2632 59.1783C72.0216 60.959 67.4671 61.8746 62.8669 61.8711ZM51.5569 51.8711C55.25 53.5711 59.2775 54.4208 63.3426 54.3578C67.4077 54.2948 71.4069 53.3207 75.0456 51.5072C78.6843 49.6936 81.8698 47.0869 84.3675 43.879C86.8652 40.6711 88.6114 36.9438 89.4775 32.9715C90.3436 28.9992 90.3076 24.8833 89.3721 20.9268C88.4366 16.9703 86.6254 13.2741 84.0719 10.1104C81.5185 6.94667 78.2879 4.39611 74.618 2.64654C70.9481 0.896971 66.9325 -0.00702451 62.8669 0.00113902C58.9609 0.000788785 55.1016 0.850447 51.5569 2.49114C54.8405 5.71221 57.4489 9.55568 59.2296 13.7968C61.0102 18.0378 61.9274 22.5914 61.9274 27.1911C61.9274 31.7909 61.0102 36.3444 59.2296 40.5855C57.4489 44.8266 54.8405 48.6701 51.5569 51.8911V51.8711ZM27.2469 28.1211C31.8475 28.1207 36.402 29.0386 40.6434 30.821C44.8847 32.6034 48.7276 35.2144 51.9469 38.5011C53.6387 34.8085 54.4814 30.7837 54.413 26.7225C54.3447 22.6613 53.367 18.6671 51.5518 15.0335C49.7366 11.3999 47.1302 8.21936 43.9241 5.72564C40.718 3.23193 36.9937 1.48848 33.0252 0.623491C29.0566 -0.241502 24.9446 -0.206049 20.9916 0.727244C17.0385 1.66054 13.3449 3.46794 10.1822 6.01656C7.01959 8.56519 4.46837 11.7902 2.71614 15.4546C0.96391 19.1189 0.0552215 23.1294 0.0568861 27.1911C0.0565359 31.0971 0.906194 34.9564 2.54689 38.5011C5.76546 35.2135 9.60825 32.6019 13.8498 30.8194C18.0913 29.037 22.6461 28.1196 27.2469 28.1211Z" fill="#888888"/>
</svg>
