<svg width="74" height="90" viewBox="0 0 74 90" fill="none" xmlns="http://www.w3.org/2000/svg">
<path fill-rule="evenodd" clip-rule="evenodd" d="M7.39999 37.5H0C0 66.5 23.19 90 51.8 90V82.5C27.28 82.5 7.39999 62.35 7.39999 37.5ZM22.2 37.5C22.1737 33.5866 22.9184 29.7063 24.3917 26.0807C25.865 22.4551 28.038 19.1552 30.7866 16.3694C33.5352 13.5837 36.8057 11.3666 40.4112 9.84474C44.0167 8.32292 47.8866 7.52618 51.8 7.5V0C31.36 0 14.8 16.79 14.8 37.5C14.8 58.21 31.36 75 51.8 75V67.5C47.8866 67.4738 44.0167 66.6771 40.4112 65.1553C36.8057 63.6334 33.5352 61.4163 30.7866 58.6306C28.038 55.8448 25.865 52.5449 24.3917 48.9193C22.9184 45.2937 22.1737 41.4134 22.2 37.5ZM51.8 15C45.8326 15 40.1097 17.3705 35.8901 21.5901C31.6705 25.8097 29.3 31.5326 29.3 37.5C29.3 43.4674 31.6705 49.1903 35.8901 53.4099C40.1097 57.6295 45.8326 60 51.8 60V37.5H74C74.0198 34.5649 73.4612 31.6547 72.3562 28.9355C71.2513 26.2163 69.6215 23.7414 67.5601 21.6521C65.4986 19.5628 63.0458 17.8999 60.3416 16.7586C57.6375 15.6172 54.7351 15.0196 51.8 15Z" fill="#888888"/>
</svg>
