<svg width="91" height="90" viewBox="0 0 91 90" fill="none" xmlns="http://www.w3.org/2000/svg">
<path fill-rule="evenodd" clip-rule="evenodd" d="M74.8224 30C74.9324 31.24 75.0124 32.48 75.0124 33.75C74.9992 44.6861 70.649 55.1705 62.916 62.9036C55.183 70.6366 44.6985 74.9868 33.7624 75C32.4924 75 31.2524 74.92 30.0124 74.81V90H90.0124V30H74.8224ZM33.7624 1.55214e-05C25.8005 -0.00761912 18.0926 2.80146 12.0026 7.93017C5.91263 13.0589 1.83323 20.1766 0.486261 28.0237C-0.860704 35.8708 0.611641 43.9414 4.64272 50.8074C8.67381 57.6734 15.0037 62.8921 22.5124 65.54V22.54H65.5124C63.1979 15.9628 58.9025 10.2642 53.2169 6.22788C47.5314 2.1916 40.735 0.0159009 33.7624 1.55214e-05ZM30.0124 67.28C31.2577 67.4193 32.5094 67.4927 33.7624 67.5C42.7135 67.5 51.2979 63.9442 57.6273 57.6149C63.9566 51.2855 67.5124 42.7011 67.5124 33.75C67.5101 32.4969 67.4366 31.2448 67.2924 30H30.0124V67.28Z" fill="#D6A02C"/>
</svg>
