<svg width="90" height="27" viewBox="0 0 90 27" fill="none" xmlns="http://www.w3.org/2000/svg">
<path d="M36 6V8.69H43.91L46.95 8.63L45.03 10.61L37.98 21.39L50.76 8.37V6H36Z" fill="white"/>
<path d="M45.87 23.69L42.83 23.75L44.75 21.77L51.8 10.98L39.02 24.01V26.37H53.78V23.69H45.87Z" fill="white"/>
<path d="M7.63232 17.4136L5.11182 20.0332V27H2.39307V6.38281H5.11182V16.5781L14.2734 6.38281H17.5586L9.44482 15.4878L18.1958 27H14.939L7.63232 17.4136ZM32.2285 17.4702H23.2935V24.7769H33.6729V27H20.5747V6.38281H33.5312V8.62012H23.2935V15.2471H32.2285V17.4702Z" fill="white"/>
<path d="M70.6382 8.62012H64.0112V27H61.3066V8.62012H54.6938V6.38281H70.6382V8.62012ZM83.9487 21.6191H75.311L73.3711 27H70.5674L78.4404 6.38281H80.8193L88.7065 27H85.917L83.9487 21.6191ZM76.1323 19.3818H83.1416L79.6299 9.73877L76.1323 19.3818Z" fill="#D5A02C"/>
</svg>
