<svg width="15" height="14" viewBox="0 0 15 14" fill="none" xmlns="http://www.w3.org/2000/svg">
<path d="M15 8.58491V14H11.7713V8.9151C11.7713 7.66038 11.3005 6.80189 10.157 6.80189C9.28251 6.80189 8.74439 7.39623 8.5426 7.92453C8.47534 8.12264 8.40807 8.38679 8.40807 8.71698V14H5.17937C5.17937 14 5.24664 5.4151 5.17937 4.55661H8.40807V5.87736C8.81166 5.21698 9.61883 4.29245 11.3004 4.29245C13.3856 4.29245 15 5.67925 15 8.58491ZM1.81614 0C0.739908 0 0 0.726415 0 1.65094C0 2.57547 0.672645 3.30189 1.74888 3.30189C2.89238 3.30189 3.56502 2.57547 3.56502 1.65094C3.63229 0.660377 2.95964 0 1.81614 0ZM0.201793 14H3.43049V4.55661H0.201793V14Z" fill="white"/>
</svg>
