<svg width="15" height="15" viewBox="0 0 15 15" fill="none" xmlns="http://www.w3.org/2000/svg">
<path fill-rule="evenodd" clip-rule="evenodd" d="M7.5 0C3.35955 0 0 3.35955 0 7.5C0 11.6405 3.35955 15 7.5 15C11.6323 15 15 11.6405 15 7.5C15 3.35955 11.6323 0 7.5 0ZM12.4539 3.45716C13.3487 4.54718 13.8856 5.93817 13.9019 7.44305C13.6904 7.40241 11.5754 6.97125 9.44414 7.2397C9.39534 7.13395 9.35466 7.02005 9.30586 6.90619C9.17569 6.59709 9.0293 6.27984 8.88286 5.97886C11.2418 5.019 12.3156 3.63612 12.4539 3.45716ZM7.5 1.10629C9.12689 1.10629 10.6155 1.71638 11.7462 2.71692C11.6323 2.87961 10.6643 4.173 8.38664 5.02711C7.3373 3.09924 6.17409 1.52115 5.99513 1.27711C6.47503 1.16323 6.97941 1.10629 7.5 1.10629ZM4.77497 1.70824C4.94578 1.93601 6.08461 3.52223 7.15022 5.40942C4.15673 6.20662 1.51302 6.19036 1.22831 6.19036C1.64317 4.20553 2.98536 2.55423 4.77497 1.70824ZM1.09002 7.50816C1.09002 7.44305 1.09002 7.37798 1.09002 7.31292C1.36659 7.32103 4.47397 7.36172 7.67081 6.40186C7.85794 6.75975 8.02875 7.1258 8.19145 7.49184C8.11008 7.51627 8.02059 7.54069 7.93927 7.56506C4.63666 8.63067 2.87961 11.5428 2.73319 11.7869C1.71638 10.6562 1.09002 9.15131 1.09002 7.50816ZM7.5 13.91C6.0195 13.91 4.65293 13.4056 3.57104 12.5596C3.68492 12.3238 4.98642 9.81834 8.59814 8.5575C8.61441 8.54934 8.62256 8.54934 8.63883 8.54123C9.54173 10.8758 9.90783 12.8362 10.0054 13.3975C9.23264 13.731 8.38664 13.91 7.5 13.91ZM11.071 12.8118C11.006 12.4214 10.6643 10.5504 9.82645 8.24836C11.8357 7.93111 13.5927 8.45175 13.8124 8.52497C13.5358 10.3064 12.5108 11.8438 11.071 12.8118Z" fill="white"/>
</svg>
