<svg  viewBox="0 0 90 90" fill="none" xmlns="http://www.w3.org/2000/svg">
<path fill-rule="evenodd" clip-rule="evenodd" d="M52.5 0C43.8561 0.00199802 35.478 2.98851 28.7819 8.45471C22.0858 13.9209 17.4825 21.5315 15.75 30H70.61L31.83 68.77C36.7074 71.9923 42.2707 74.0294 48.0756 74.7185C53.8805 75.4077 59.7661 74.7299 65.2624 72.7392C70.7587 70.7485 75.7132 67.5001 79.7304 63.2535C83.7476 59.0068 86.7161 53.8796 88.3988 48.2814C90.0814 42.6831 90.4316 36.7689 89.4214 31.0112C88.4112 25.2535 86.0686 19.8118 82.5806 15.1207C79.0927 10.4297 74.556 6.61925 69.3331 3.99382C64.1102 1.36839 58.3457 0.000706222 52.5 0ZM0 37.5V90L52.5 37.5H0Z" fill="currentColor"/>
</svg>
