<svg width="90" height="90" viewBox="0 0 90 90" fill="none" xmlns="http://www.w3.org/2000/svg">
<path d="M82.5 0H7.5C5.51331 0.00789946 3.61026 0.800612 2.20544 2.20543C0.80063 3.61024 0.00789946 5.51331 0 7.5V82.5C0.00789946 84.4867 0.80063 86.3898 2.20544 87.7946C3.61026 89.1994 5.51331 89.9921 7.5 90H82.5C84.4867 89.9921 86.3897 89.1994 87.7946 87.7946C89.1994 86.3898 89.9921 84.4867 90 82.5V7.5C89.9921 5.51331 89.1994 3.61024 87.7946 2.20543C86.3897 0.800612 84.4867 0.00789946 82.5 0V0ZM60 82.5H33.75C26.7881 82.5 20.1113 79.7344 15.1885 74.8116C10.2656 69.8887 7.5 63.2119 7.5 56.25C7.5 49.2881 10.2656 42.6113 15.1885 37.6884C20.1113 32.7656 26.7881 30 33.75 30H60V37.5H33.75C28.7772 37.5 24.0081 39.4754 20.4918 42.9917C16.9755 46.5081 15 51.2772 15 56.25C15 61.2228 16.9755 65.992 20.4918 69.5083C24.0081 73.0246 28.7772 75 33.75 75H60V82.5ZM56.25 60H30V52.5H56.25C61.2228 52.5 65.9919 50.5246 69.5082 47.0083C73.0245 43.4919 75 38.7228 75 33.75C75 28.7772 73.0245 24.0081 69.5082 20.4917C65.9919 16.9754 61.2228 15 56.25 15H30V7.5H56.25C63.2119 7.5 69.8887 10.2656 74.8115 15.1884C79.7344 20.1113 82.5 26.7881 82.5 33.75C82.5 40.7119 79.7344 47.3887 74.8115 52.3116C69.8887 57.2344 63.2119 60 56.25 60Z" fill="currentColor"/>
</svg>
