<svg xmlns="http://www.w3.org/2000/svg" width="50" height="50" viewBox="0 0 15 12" preserveAspectRatio="xMidYMid meet" fill="none" class="undefined">
  <path fill="currentColor" d="M15 1.462a6.6 6.6 0 0 1-1.76.461c.612-.385 1.148-1 1.377-1.692-.612.384-1.224.615-1.99.769a3 3 0 0 0-2.219-1C8.724 0 7.347 1.385 7.347 3.077c0 .23 0 .461.076.692A9 9 0 0 1 1.071.54C.841 1 .69 1.538.69 2.076c0 1.077.535 2 1.377 2.538-.535 0-.995-.153-1.377-.384 0 1.461 1.071 2.769 2.449 3-.23.077-.536.077-.842.077-.23 0-.383 0-.612-.077.382 1.23 1.53 2.154 2.908 2.154-1.072.846-2.373 1.307-3.827 1.307-.23 0-.459 0-.765-.077C1.378 11.461 2.985 12 4.745 12c5.663 0 8.724-4.692 8.724-8.77v-.384c.613-.23 1.148-.77 1.531-1.384"></path>
</svg>