<svg xmlns="http://www.w3.org/2000/svg" width="50" height="50" viewBox="0 0 15 10" preserveAspectRatio="xMidYMid meet" fill="none" class="undefined">

<path d="M6.36161 4.17266C6.62946 3.74101 6.76339 3.23741 6.76339 2.66187C6.76339 1.15108 5.55804 0 4.21875 0H0.334821C0.133929 0 0 0.143885 0 0.359712V9.4964C0 9.71223 0.133929 9.85611 0.334821 9.85611H4.62054C6.22768 9.85611 7.56697 8.4892 7.56697 6.76259C7.56697 5.68345 7.09821 4.7482 6.36161 4.17266ZM1.67411 1.8705H4.21875C4.6875 1.8705 5.02232 2.30216 5.02232 2.73381C5.02232 3.23741 4.62054 3.59712 4.21875 3.59712H1.67411V1.8705ZM4.6875 8.05755H1.67411V5.46763H4.6875C5.35714 5.46763 5.89286 6.04316 5.89286 6.76259C5.89286 7.48201 5.35714 8.05755 4.6875 8.05755Z" fill="currentColor"/>
<path d="M15 6.11511C15 3.95684 13.4598 2.23022 11.5179 2.23022C9.57589 2.23022 8.03571 3.95684 8.03571 6.11511C8.03571 8.27339 9.57589 10 11.5179 10C12.6563 10 13.7277 9.35252 14.3973 8.27339C14.4643 8.1295 14.5312 7.98561 14.5982 7.84173C14.6652 7.76978 14.5982 7.62591 14.4643 7.62591H12.7902C12.7232 7.62591 12.7232 7.6259 12.6562 7.69784C12.3214 8.05756 11.9196 8.20144 11.5179 8.20144C10.6473 8.20144 9.97768 7.55396 9.77678 6.61871H14.6652C14.8661 6.61871 15 6.47482 15 6.259V6.11511ZM11.5179 4.10072C12.1205 4.10072 12.6562 4.46044 12.9911 5.03598H10.0446C10.3125 4.46044 10.9152 4.10072 11.5179 4.10072Z" fill="currentColor"/>
<path d="M12.9241 1.79857H9.84375C9.70982 1.79857 9.57589 1.65469 9.57589 1.5108V0.719435C9.57589 0.57555 9.70982 0.431664 9.84375 0.431664H12.9241C13.058 0.431664 13.192 0.57555 13.192 0.719435V1.58274C13.192 1.65468 13.125 1.79857 12.9241 1.79857Z" fill="currentColor"/>
</svg>
